<?xml version="1.0" encoding="utf-8"?>
<!-- Generator: Adobe Illustrator 22.1.0, SVG Export Plug-In . SVG Version: 6.00 Build 0)  -->
<svg version="1.1" id="Layer_1" xmlns="http://www.w3.org/2000/svg" xmlns:xlink="http://www.w3.org/1999/xlink" x="0px" y="0px"
	 width="100px" height="100px" viewBox="0 0 100 100" style="enable-background:new 0 0 100 100;" xml:space="preserve">
<style type="text/css">
	.st0{fill:#FFFFFF;stroke:#666666;stroke-miterlimit:10;}
	.st1{fill:#666666;}
</style>
<line class="st0" x1="87.4" y1="11.2" x2="37.1" y2="61.5"/>
<line class="st0" x1="81.3" y1="11.2" x2="31" y2="61.5"/>
<line class="st0" x1="75.2" y1="11.2" x2="24.9" y2="61.5"/>
<line class="st0" x1="69.1" y1="11.2" x2="18.8" y2="61.5"/>
<line class="st0" x1="90.6" y1="13.6" x2="43.5" y2="60.7"/>
<line class="st0" x1="91.2" y1="18.7" x2="48.5" y2="61.4"/>
<line class="st0" x1="90.7" y1="24.8" x2="55.5" y2="60"/>
<line class="st0" x1="90.8" y1="30.4" x2="61.3" y2="59.9"/>
<line class="st0" x1="91.7" y1="35.2" x2="65.6" y2="61.2"/>
<line class="st0" x1="90.8" y1="41.7" x2="71.2" y2="61.4"/>
<line class="st0" x1="90.6" y1="47.6" x2="76.3" y2="61.9"/>
<line class="st0" x1="91" y1="52.9" x2="82.9" y2="61"/>
<line class="st0" x1="90.3" y1="59.2" x2="86.8" y2="62.7"/>
<g>
	<line class="st0" x1="13.3" y1="61.5" x2="62.8" y2="12"/>
	<line class="st0" x1="5.2" y1="63.9" x2="56" y2="13.1"/>
	<line class="st0" x1="4.7" y1="58.7" x2="50.9" y2="12.5"/>
	<line class="st0" x1="5.5" y1="52.3" x2="46.9" y2="10.8"/>
	<line class="st0" x1="5.7" y1="46.4" x2="42.3" y2="9.8"/>
	<line class="st0" x1="4.8" y1="41.6" x2="35.7" y2="10.7"/>
	<line class="st0" x1="6.1" y1="34.7" x2="30.1" y2="10.7"/>
	<line class="st0" x1="6.5" y1="28.6" x2="25" y2="10"/>
	<line class="st0" x1="6.3" y1="23.1" x2="18.7" y2="10.7"/>
	<line class="st0" x1="5.2" y1="18.6" x2="11.1" y2="12.7"/>
</g>
<rect x="8.8" y="15" class="st1" width="13.2" height="41.8"/>
<g>
	<path class="st1" d="M90.6,9.3h-86c-1.1,0-2,0.9-2,2v62c0,1.1,0.9,2,2,2c0,0,28.4,0,29,0L27,84.1c-0.4,0.6-0.5,1.4-0.2,2.1
		s1,1.1,1.8,1.1h38c0.8,0,1.4-0.4,1.8-1.1c0.3-0.7,0.3-1.5-0.2-2.1l-6.6-8.8c0.6,0,29,0,29,0c1.1,0,2-0.9,2-2v-62
		C92.6,10.2,91.7,9.3,90.6,9.3z M32.6,83.2l3-4h24l3,4H32.6z M88.6,71.3h-82v-8h82V71.3z M88.6,59.2h-82v-46h82V59.2z"/>
	<circle class="st1" cx="47.5" cy="67.2" r="2"/>
</g>
</svg>
